<svg xmlns="http://www.w3.org/2000/svg" width="26.03" height="26.03" viewBox="0 0 26.03 26.03">
  <path id="Path_1275" data-name="Path 1275" d="M829.447,411.216c-.007-.143-.019-.284-.03-.426,0-.055-.007-.111-.013-.166-.017-.182-.039-.362-.063-.542l0-.029q-.039-.287-.091-.57h0a13.018,13.018,0,1,0-2.628,10.47l-3.864-2.732a8.294,8.294,0,1,1,1.649-7.738h-7.949l0,.008v4.7h12.8a13.035,13.035,0,0,0,.2-1.862c.008-.129.011-.289.011-.491S829.457,411.422,829.447,411.216Z" transform="translate(-803.433 -398.823)" fill="#0ecc5f"/>
</svg>
