<svg xmlns="http://www.w3.org/2000/svg" width="107" height="26" viewBox="0 0 107 26"><g><g><g><g><g><path fill="#0ecc5f" d="M94.749 20.635l-.067-.001v4.332h.067c3.78 0 7.15-1.757 9.34-4.498l-3.549-2.508a7.604 7.604 0 0 1-5.791 2.675z"/></g><g><path fill="#2b7a39" d="M84.874 6.283A11.938 11.938 0 0 0 75 1.064v4.332c4.201 0 7.62 3.418 7.62 7.62 0 4.201-3.419 7.62-7.62 7.62v4.33c4.103 0 7.722-2.067 9.874-5.217a11.945 11.945 0 0 0 8.698 5.16v-4.365c-3.645-.567-6.443-3.727-6.443-7.528 0-3.802 2.798-6.961 6.443-7.529V1.122a11.944 11.944 0 0 0-8.698 5.16z"/></g><g><path fill="#0ecc5f" d="M106.686 12.445c-.006-.131-.017-.261-.028-.391-.004-.05-.006-.101-.011-.152a12.067 12.067 0 0 0-.058-.498l-.003-.027c-.025-.175-.053-.35-.085-.523-1.017-5.568-5.89-9.79-11.752-9.79l-.067.001v4.333l.067-.002c3.45 0 6.372 2.306 7.306 5.458h-7.3l-.003.008v4.315h11.751a11.962 11.962 0 0 0 .183-2.732z"/></g></g></g><g><g><path fill="#0ecc5f" d="M26.014 12.394c-.007-.143-.019-.284-.03-.425-.004-.056-.007-.111-.013-.166a12.946 12.946 0 0 0-.062-.542l-.004-.03a13.029 13.029 0 0 0-.092-.569C24.705 4.598 19.4.001 13.015.001 5.827 0 0 5.828 0 13.016 0 20.204 5.827 26.03 13.015 26.03c4.117 0 7.786-1.914 10.17-4.899L19.321 18.4a8.28 8.28 0 0 1-6.306 2.914c-4.576 0-8.298-3.723-8.298-8.298 0-4.576 3.722-8.298 8.298-8.298 3.758 0 6.938 2.512 7.956 5.944h-7.95l-.003.008v4.7H25.815a13.034 13.034 0 0 0 .199-2.976z"/></g></g><g transform="rotate(45 52.01 13.015)"><path fill="#999" d="M49.348 5.034v2.128h7.012L44.027 19.495l1.5 1.5L57.86 8.663v7.012h2.128V5.035z"/></g></g></g></svg>