<svg xmlns="http://www.w3.org/2000/svg" width="69" height="52" viewBox="0 0 69 52"><g><g><g><path fill="#0ecc5f" d="M42.514 42.13c-.049 0-.097-.004-.145-.005v9.326l.145.002c8.139 0 15.39-3.784 20.104-9.683l-7.638-5.4c-3.01 3.52-7.48 5.76-12.466 5.76z"/></g><g><path fill="#2b7a39" d="M21.257 11.233C16.624 4.452 8.833 0 0 0v9.325c9.045 0 16.403 7.358 16.403 16.402S9.045 42.13 0 42.13v9.324c8.833 0 16.624-4.452 21.257-11.233 4.185 6.124 10.946 10.348 18.723 11.109v-9.397c-7.845-1.222-13.869-8.023-13.869-16.206s6.024-14.985 13.87-16.206V.124c-7.778.76-14.54 4.985-18.724 11.109z"/></g><g><path fill="#0ecc5f" d="M68.21 24.498c-.014-.282-.038-.561-.06-.841-.009-.109-.014-.22-.025-.327-.033-.36-.076-.716-.124-1.072l-.008-.058a25.276 25.276 0 0 0-.18-1.126C65.622 9.088 55.133 0 42.513 0l-.144.002v9.326c.048 0 .096-.003.145-.003 7.428 0 13.715 4.965 15.726 11.75H42.528l-.007.016v9.289h25.294c.221-1.2.355-2.43.403-3.682.015-.255.022-.572.022-.971 0-.412-.01-.821-.03-1.229z"/></g></g></g></svg>