<?xml version="1.0" encoding="utf-8"?>
<!-- Generator: Adobe Illustrator 25.3.1, SVG Export Plug-In . SVG Version: 6.00 Build 0)  -->
<svg version="1.1" id="Layer_1" xmlns="http://www.w3.org/2000/svg" xmlns:xlink="http://www.w3.org/1999/xlink" x="0px" y="0px"
	 viewBox="0 0 107 26" style="enable-background:new 0 0 107 26;" xml:space="preserve">
<style type="text/css">
	.st0{fill:#0ECC5F;}
	.st1{fill:#2B7A39;}
	.st2{fill:#999999;}
	.st3{fill:#2775CA;}
	.st4{fill:#FFFFFF;}
</style>
<g>
	<g>
		<g>
			<g>
				<g>
					<path class="st0" d="M19.7,20.6L19.7,20.6L19.7,25h0.1c3.8,0,7.2-1.8,9.3-4.5L25.5,18C24.1,19.7,22,20.6,19.7,20.6z"/>
				</g>
				<g>
					<path class="st1" d="M9.9,6.3C7.6,3,4,1.1,0,1.1v4.3c4.2,0,7.6,3.4,7.6,7.6c0,4.2-3.4,7.6-7.6,7.6V25c4.1,0,7.7-2.1,9.9-5.2
						c2,2.9,5.2,4.8,8.7,5.2v-4.4c-3.6-0.6-6.4-3.7-6.4-7.5c0-3.8,2.8-7,6.4-7.5V1.1C15.1,1.5,11.9,3.4,9.9,6.3L9.9,6.3z"/>
				</g>
				<g>
					<path class="st0" d="M31.7,12.4c0-0.1,0-0.3,0-0.4c0-0.1,0-0.1,0-0.2c0-0.2,0-0.3-0.1-0.5l0,0c0-0.2-0.1-0.4-0.1-0.5
						c-1-5.6-5.9-9.8-11.8-9.8l-0.1,0v4.3l0.1,0c3.4,0,6.4,2.3,7.3,5.5h-7.3l0,0v4.3h11.8C31.7,14.3,31.7,13.4,31.7,12.4z"/>
				</g>
			</g>
		</g>
		<g transform="rotate(45 52.01 13.015)">
			<path class="st2" d="M51.8,2.8v2.1h7L46.5,17.2l1.5,1.5L60.3,6.4v7h2.1V2.8L51.8,2.8z"/>
		</g>
	</g>
	<path class="st3" d="M95,25c6.6,0,12-5.3,12-12S101.7,1,95,1s-12,5.3-12,12S88.4,25,95,25z"/>
	<path class="st4" d="M98.3,14.9c0-1.7-1-2.3-3.1-2.6c-1.5-0.2-1.8-0.6-1.8-1.3s0.5-1.1,1.5-1.1c0.9,0,1.4,0.3,1.6,1
		c0,0.1,0.2,0.2,0.3,0.2h0.8c0.2,0,0.3-0.1,0.3-0.3v0c-0.2-1.1-1.1-1.9-2.2-2V7.5c0-0.2-0.1-0.3-0.4-0.4h-0.7
		c-0.2,0-0.3,0.1-0.4,0.4v1.1c-1.5,0.2-2.4,1.2-2.4,2.4c0,1.6,1,2.3,3.1,2.5c1.4,0.2,1.8,0.5,1.8,1.3c0,0.8-0.7,1.3-1.6,1.3
		c-1.3,0-1.7-0.5-1.9-1.3c0-0.2-0.2-0.3-0.3-0.3H92c-0.2,0-0.3,0.1-0.3,0.3v0c0.2,1.2,1,2.1,2.6,2.4v1.2c0,0.2,0.1,0.3,0.4,0.4h0.7
		c0.2,0,0.3-0.1,0.4-0.4v-1.2C97.3,17.3,98.3,16.2,98.3,14.9L98.3,14.9z"/>
	<path class="st4" d="M92.5,20.1c-3.9-1.4-5.9-5.7-4.4-9.6c0.7-2.1,2.4-3.7,4.4-4.4c0.2-0.1,0.3-0.2,0.3-0.5V4.9
		c0-0.2-0.1-0.3-0.3-0.4c0,0-0.1,0-0.2,0c-4.7,1.5-7.3,6.5-5.8,11.3c0.9,2.8,3,4.9,5.8,5.8c0.2,0.1,0.4,0,0.4-0.2c0,0,0-0.1,0-0.2
		v-0.7C92.8,20.4,92.7,20.2,92.5,20.1z M97.8,4.6c-0.2-0.1-0.4,0-0.4,0.2c0,0,0,0.1,0,0.2v0.7c0,0.2,0.1,0.4,0.3,0.5
		c3.9,1.4,5.9,5.7,4.4,9.6c-0.7,2.1-2.4,3.7-4.4,4.4c-0.2,0.1-0.3,0.2-0.3,0.5v0.7c0,0.2,0.1,0.3,0.3,0.4c0,0,0.1,0,0.2,0
		c4.7-1.5,7.3-6.5,5.8-11.3C102.7,7.6,100.5,5.5,97.8,4.6L97.8,4.6z"/>
</g>
</svg>
